<?xml version="1.0" encoding="UTF-8" standalone="no"?><svg xmlns="http://www.w3.org/2000/svg" xmlns:xlink="http://www.w3.org/1999/xlink" contentScriptType="application/ecmascript" contentStyleType="text/css" height="252px" preserveAspectRatio="none" style="width:70px;height:252px;" version="1.1" viewBox="0 0 70 252" width="70px" zoomAndPan="magnify"><defs><filter height="300%" id="fo0mo2uuus6l9" width="300%" x="-1" y="-1"><feGaussianBlur result="blurOut" stdDeviation="2.0"/><feColorMatrix in="blurOut" result="blurOut2" type="matrix" values="0 0 0 0 0 0 0 0 0 0 0 0 0 0 0 0 0 0 .4 0"/><feOffset dx="4.0" dy="4.0" in="blurOut2" result="blurOut3"/><feBlend in="SourceGraphic" in2="blurOut3" mode="normal"/></filter></defs><g><!--entity foo--><rect fill="#808080" filter="url(#fo0mo2uuus6l9)" height="37.6094" style="stroke: #000000; stroke-width: 1.5;" width="40" x="12.5" y="8"/><rect fill="#808080" height="5" style="stroke: #000000; stroke-width: 1.5;" width="10" x="7.5" y="13"/><rect fill="#808080" height="5" style="stroke: #000000; stroke-width: 1.5;" width="10" x="7.5" y="35.6094"/><text fill="#FFFAFA" font-family="sans-serif" font-size="14" lengthAdjust="spacingAndGlyphs" textLength="20" x="22.5" y="32.5332">foo</text><!--entity bar--><rect fill="#808080" filter="url(#fo0mo2uuus6l9)" height="37.6094" style="stroke: #000000; stroke-width: 1.5;" width="41" x="12" y="106"/><rect fill="#808080" height="5" style="stroke: #000000; stroke-width: 1.5;" width="10" x="7" y="111"/><rect fill="#808080" height="5" style="stroke: #000000; stroke-width: 1.5;" width="10" x="7" y="133.6094"/><text fill="#FFFAFA" font-family="sans-serif" font-size="14" lengthAdjust="spacingAndGlyphs" textLength="21" x="22" y="130.5332">bar</text><!--entity client--><rect fill="#808080" filter="url(#fo0mo2uuus6l9)" height="37.6094" style="stroke: #000000; stroke-width: 1.5;" width="53" x="6" y="204"/><rect fill="#808080" height="5" style="stroke: #000000; stroke-width: 1.5;" width="10" x="1" y="209"/><rect fill="#808080" height="5" style="stroke: #000000; stroke-width: 1.5;" width="10" x="1" y="231.6094"/><text fill="#FFFAFA" font-family="sans-serif" font-size="14" lengthAdjust="spacingAndGlyphs" textLength="33" x="16" y="228.5332">client</text><!--link foo to bar--><path d="M32.5,51.061 C32.5,65.979 32.5,85.346 32.5,100.374 " fill="none" id="foo-bar" style="stroke: #808080; stroke-width: 1.0; stroke-dasharray: 7.0,7.0;"/><polygon fill="#808080" points="32.5,105.698,36.5,96.698,32.5,100.698,28.5,96.698,32.5,105.698" style="stroke: #808080; stroke-width: 1.0;"/><polygon fill="#808080" points="32.5,46.057,28.5,55.057,32.5,51.057,36.5,55.057,32.5,46.057" style="stroke: #808080; stroke-width: 1.0;"/><!--link bar to client--><path d="M32.5,149.0611 C32.5,163.9786 32.5,183.3455 32.5,198.3736 " fill="none" id="bar-client" style="stroke: #808080; stroke-width: 1.0; stroke-dasharray: 7.0,7.0;"/><polygon fill="#808080" points="32.5,203.6977,36.5,194.6977,32.5,198.6977,28.5,194.6977,32.5,203.6977" style="stroke: #808080; stroke-width: 1.0;"/><polygon fill="#808080" points="32.5,144.0569,28.5,153.0569,32.5,149.0569,36.5,153.0569,32.5,144.0569" style="stroke: #808080; stroke-width: 1.0;"/><!--
@startuml
skinparam componentBackgroundColor Gray
skinparam componentBorderColor Black
skinparam componentFontColor Snow
skinparam ArrowColor Gray
hide empty members

[foo]
[bar]
[client]

foo <..> bar
bar <..> client

@enduml

PlantUML version 1.2019.06(Fri May 24 19:10:25 CEST 2019)
(GPL source distribution)
Java Runtime: Java(TM) SE Runtime Environment
JVM: Java HotSpot(TM) Client VM
Java Version: 1.8.0_211-b12
Operating System: Windows 10
OS Version: 10.0
Default Encoding: Cp1252
Language: en
Country: GB
--></g></svg>